<svg width="800" height="800" viewBox="0 0 800 800" fill="none" xmlns="http://www.w3.org/2000/svg">
  <path
    d="M145.625 599.375L388.003 167.02C393.259 157.649 406.741 157.649 411.997 167.02L654.375 599.375M400 369.063L527.187 599.375M400 599.375L336.406 484.219"
    stroke="#D6D6D6" stroke-width="60" stroke-linecap="round" stroke-linejoin="round" />
  <path fill-rule="evenodd" clip-rule="evenodd"
    d="M223.002 400L119.456 584.705C111.354 599.157 116.502 617.441 130.954 625.544C145.407 633.646 163.691 628.498 171.793 614.045L291.787 400H223.002ZM382.814 400H451.355L553.449 584.872C561.458 599.376 556.194 617.627 541.69 625.637C527.186 633.646 508.935 628.382 500.925 613.878L382.814 400ZM508.212 400H576.997L680.543 584.705C688.645 599.157 683.497 617.441 669.045 625.544C654.592 633.646 636.308 628.498 628.206 614.045L508.212 400ZM362.667 469.716C354.658 455.212 336.407 449.948 321.903 457.957C307.399 465.967 302.135 484.218 310.144 498.721L373.738 613.878C381.747 628.382 399.998 633.646 414.502 625.637C429.006 617.627 434.271 599.376 426.261 584.872L362.667 469.716Z"
    fill="#00C492" />
  <path fill-rule="evenodd" clip-rule="evenodd"
    d="M382.814 400L500.926 613.878C508.935 628.382 527.186 633.646 541.69 625.637C556.194 617.627 561.458 599.376 553.449 584.872L451.355 400H382.814ZM362.668 469.716C354.658 455.212 336.407 449.948 321.903 457.957C307.399 465.967 302.135 484.218 310.144 498.721L373.738 613.878C381.748 628.382 399.998 633.646 414.502 625.637C429.006 617.627 434.271 599.376 426.261 584.872L362.668 469.716Z"
    fill="#038776" />
  <g clip-path="url(#clip0_713_349)">
    <path
      d="M30 194.444V71.1111C30 60.2078 34.3313 49.751 42.0412 42.0412C49.751 34.3313 60.2078 30 71.1111 30H194.444M770 194.444V71.1111C770 60.2078 765.669 49.751 757.959 42.0412C750.249 34.3313 739.792 30 728.889 30H605.556M30 605.556V728.889C30 739.792 34.3313 750.249 42.0412 757.959C49.751 765.669 60.2078 770 71.1111 770H194.444M605.556 770H728.889C739.792 770 750.249 765.669 757.959 757.959C765.669 750.249 770 739.792 770 728.889V605.556"
      stroke="black" stroke-width="60" stroke-linecap="round" stroke-linejoin="round" />
    <path d="M50 400H750" stroke="#2E4A5D" stroke-width="60" stroke-linecap="round" stroke-linejoin="round" />
  </g>
  <defs>
    <clipPath id="clip0_713_349">
      <rect width="800" height="800" fill="white" />
    </clipPath>
  </defs>
</svg>
