<svg width="800" height="800" viewBox="0 0 800 800" fill="none" xmlns="http://www.w3.org/2000/svg">
<g clip-path="url(#clip0_720_337)">
<path d="M567.819 32.0302C575.219 15.43 598.781 15.43 606.181 32.0302L645.608 120.482C648.66 127.329 655.13 132.03 662.585 132.817L758.892 142.981C776.966 144.889 784.247 167.298 770.746 179.465L698.807 244.296C693.238 249.314 690.767 256.92 692.322 264.253L712.416 358.988C716.187 376.767 697.124 390.616 681.381 381.536L597.492 333.152C590.999 329.406 583.001 329.406 576.508 333.152L492.619 381.536C476.876 390.616 457.813 376.767 461.584 358.988L481.678 264.253C483.233 256.92 480.762 249.314 475.193 244.296L403.254 179.465C389.753 167.298 397.034 144.889 415.108 142.981L511.415 132.817C518.87 132.03 525.34 127.329 528.392 120.482L567.819 32.0302Z" fill="#FFE600"/>
<rect x="9" y="86" width="305" height="305" rx="30" fill="#FF756B"/>
<rect x="8" y="486" width="305" height="305" rx="30" fill="#00C492"/>
<rect x="408" y="486" width="305" height="305" rx="30" fill="#5672cd"/>
<path d="M586.8 0.000734874C581.627 -0.0525985 576.88 2.80073 574.587 7.36073L516 124.161L384.8 142.827C373.787 144.427 369.387 157.761 377.387 165.387L478.853 256.241L453.44 384.507C451.573 395.334 463.12 403.574 472.987 398.454L586.667 337.867L700.96 398.481C710.827 403.547 722.293 395.334 720.48 384.561L695.36 256.294L795.893 165.414C803.893 157.787 799.52 144.427 788.48 142.854L657.387 124.187L598.72 7.3874C596.48 2.93407 591.867 0.0540682 586.8 0.000734874ZM586.667 43.0674L636.347 142.001C638.293 145.947 642.107 148.667 646.48 149.281L757.627 165.147L671.573 242.214C668.373 245.201 666.96 249.574 667.707 253.841L689.387 362.641L592.96 311.254C589.04 309.227 584.373 309.227 580.427 311.254L484.693 362.614L506.64 253.814C507.387 249.547 505.92 245.147 502.773 242.134L415.787 165.067L526.88 149.227C531.28 148.614 535.067 145.894 537.013 141.974L586.667 43.0674ZM440 480.001C418.08 480.001 400 498.081 400 520.001V760.001C400 781.921 418.08 800.001 440 800.001H680C701.92 800.001 720 781.921 720 760.001V520.001C720 498.081 701.92 480.001 680 480.001H440ZM440 506.667H680C687.627 506.667 693.333 512.374 693.333 520.001V760.001C693.333 767.627 687.627 773.334 680 773.334H440C432.373 773.334 426.667 767.627 426.667 760.001V520.001C426.667 512.374 432.373 506.667 440 506.667ZM40 80.0007C18.08 80.0007 0 98.0807 0 120.001V360.001C0 381.921 18.08 400.001 40 400.001H280C301.92 400.001 320 381.921 320 360.001V120.001C320 98.0807 301.92 80.0007 280 80.0007H40ZM40 106.667H280C287.627 106.667 293.333 112.374 293.333 120.001V360.001C293.333 367.627 287.627 373.334 280 373.334H40C32.3733 373.334 26.6667 367.627 26.6667 360.001V120.001C26.6667 112.374 32.3733 106.667 40 106.667ZM40 480.001C18.08 480.001 0 498.081 0 520.001V760.001C0 781.921 18.08 800.001 40 800.001H280C301.92 800.001 320 781.921 320 760.001V520.001C320 498.081 301.92 480.001 280 480.001H40ZM40 506.667H280C287.627 506.667 293.333 512.374 293.333 520.001V760.001C293.333 767.627 287.627 773.334 280 773.334H40C32.3733 773.334 26.6667 767.627 26.6667 760.001V520.001C26.6667 512.374 32.3733 506.667 40 506.667Z" fill="black"/>
</g>
<defs>
<clipPath id="clip0_720_337">
<rect width="800" height="800" fill="white"/>
</clipPath>
</defs>
</svg>
